<?xml version="1.0" standalone="no"?>
<!DOCTYPE svg PUBLIC "-//W3C//DTD SVG 20010904//EN"
 "http://www.w3.org/TR/2001/REC-SVG-20010904/DTD/svg10.dtd">
<svg version="1.0" xmlns="http://www.w3.org/2000/svg"
 width="500.000000pt" height="440.000000pt" viewBox="0 0 500.000000 440.000000"
 preserveAspectRatio="xMidYMid meet">

<g transform="translate(0.000000,440.000000) scale(0.100000,-0.100000)"
fill="#000000" stroke="none">
<path d="M368 4233 l-48 -4 0 -59 c0 -32 -4 -62 -10 -65 -13 -8 -13 -62 1 -70
6 -4 10 -41 9 -94 -2 -129 12 -341 21 -341 5 0 9 -32 9 -70 0 -40 6 -86 15
-107 8 -19 15 -50 15 -69 0 -18 5 -36 10 -39 6 -3 10 -30 10 -59 0 -28 4 -56
10 -62 5 -5 14 -39 19 -74 12 -78 55 -224 76 -256 8 -13 15 -30 15 -37 0 -8 7
-20 15 -27 8 -7 15 -20 15 -30 0 -9 11 -39 25 -66 14 -27 25 -57 25 -66 0 -10
5 -18 10 -18 6 0 10 -9 10 -21 0 -19 45 -90 63 -97 4 -2 7 -9 7 -17 0 -7 6
-18 14 -24 11 -9 19 -2 42 36 15 26 51 82 80 124 49 70 52 77 39 96 -8 12 -31
31 -51 43 -111 69 -127 255 -29 350 19 19 35 41 35 51 0 9 -23 34 -52 55 -94
70 -127 168 -103 307 7 42 21 99 30 127 14 42 20 50 42 50 45 0 193 -119 388
-312 104 -103 192 -188 195 -188 3 0 26 17 51 38 88 71 116 92 197 145 75 48
80 53 59 62 -12 6 -28 22 -35 38 -7 15 -19 27 -25 27 -13 0 -68 53 -112 107
-14 17 -63 56 -108 87 -45 30 -89 64 -97 76 -8 11 -19 20 -25 20 -6 0 -32 22
-57 48 -26 27 -75 67 -110 90 -34 23 -74 49 -88 59 -69 51 -197 123 -217 123
-13 0 -23 4 -23 10 0 5 -16 12 -35 16 -19 3 -38 10 -41 15 -3 5 -18 9 -35 9
-16 0 -37 4 -47 9 -9 6 -38 13 -63 16 -25 3 -56 15 -67 25 -12 11 -22 19 -24
18 -2 -1 -24 -3 -50 -5z"/>
<path d="M4540 4225 c-180 -40 -432 -172 -642 -334 -25 -20 -61 -47 -79 -61
-164 -124 -439 -373 -439 -397 0 -7 15 -19 33 -28 27 -13 83 -55 245 -182 l32
-26 198 194 c204 200 339 309 385 309 23 0 28 -7 48 -67 13 -41 23 -106 26
-166 5 -91 4 -101 -22 -152 -15 -31 -43 -68 -62 -83 -51 -39 -73 -61 -73 -72
0 -5 16 -27 35 -49 45 -49 65 -98 65 -157 0 -95 -26 -140 -124 -219 l-37 -30
81 -122 c44 -68 84 -123 89 -123 20 0 103 148 152 268 17 42 35 86 39 97 15
34 76 237 93 305 63 256 74 315 107 595 18 146 18 442 1 483 -12 29 -17 32
-55 31 -22 -1 -66 -7 -96 -14z"/>
<path d="M2370 1495 c-84 -17 -111 -28 -134 -54 -17 -19 -18 -25 -6 -61 15
-46 76 -107 142 -141 66 -35 157 -33 227 6 64 35 126 103 135 147 5 26 2 37
-16 55 -51 49 -225 74 -348 48z"/>
</g>
</svg>
